<?xml version="1.0" standalone="no"?>
<!DOCTYPE svg PUBLIC "-//W3C//DTD SVG 20010904//EN"
 "http://www.w3.org/TR/2001/REC-SVG-20010904/DTD/svg10.dtd">
<svg version="1.0" xmlns="http://www.w3.org/2000/svg"
 width="512.000000pt" height="512.000000pt" viewBox="0 0 512.000000 512.000000"
 preserveAspectRatio="xMidYMid meet">
<metadata>
Created by potrace 1.14, written by Peter Selinger 2001-2017
</metadata>
<g transform="translate(0.000000,512.000000) scale(0.100000,-0.100000)"
fill="#000000" stroke="none">
<path d="M1005 5104 c-152 -27 -365 -108 -459 -177 -139 -99 -204 -160 -310
-293 -71 -88 -169 -292 -197 -409 -38 -163 -38 -152 -35 -1700 2 -1649 -2
-1528 62 -1714 143 -416 507 -724 940 -795 129 -21 2961 -22 3099 -1 370 57
706 298 877 630 38 74 93 213 102 259 2 6 6 29 11 51 4 22 10 49 14 60 10 34
11 2995 1 3063 -16 102 -20 124 -31 143 -5 11 -7 19 -5 19 21 0 -124 315 -165
359 -11 11 -19 23 -19 26 0 4 -6 12 -13 20 -6 7 -27 31 -45 54 -19 22 -54 60
-79 83 -26 24 -54 51 -65 61 -10 9 -22 17 -28 17 -5 0 -10 4 -10 8 0 13 -120
88 -211 132 -99 48 -213 85 -324 104 -119 21 -2991 21 -3110 0z"/>
</g>
</svg>
